<svg xmlns="http://www.w3.org/2000/svg" xmlns:xlink="http://www.w3.org/1999/xlink" width="1366" zoomAndPan="magnify" viewBox="0 0 1024.5 576" height="768" preserveAspectRatio="xMidYMid meet" version="1.0"><defs><clipPath id="4345a838f1"><path d="M 857 184.253906 L 934 184.253906 L 934 252.472656 L 857 252.472656 Z M 857 184.253906 " clipRule="nonzero"/></clipPath></defs><path fill="#e08fe4" d="M 930.476562 216.042969 L 929 220.699219 C 925.078125 229.855469 918.472656 236.351562 909.179688 240.179688 C 899.835938 243.988281 889.886719 244.058594 879.335938 240.390625 C 869.382812 236.410156 862.191406 230.011719 857.761719 221.199219 C 856.347656 218.355469 855.332031 215.382812 854.71875 212.277344 L 854.132812 207.582031 C 853.953125 204.402344 854.246094 201.199219 855.007812 197.972656 C 857.644531 188.144531 863.300781 180.792969 871.972656 175.921875 C 880.644531 171.050781 890.355469 169.773438 901.105469 172.082031 C 911.734375 174.890625 919.8125 180.429688 925.339844 188.699219 C 930.863281 196.96875 932.578125 206.085938 930.476562 216.042969 " fillOpacity="1" fillRule="nonzero"/><g clipPath="url(#4345a838f1)"><path fill="#000000" d="M 872.9375 195.164062 C 869.675781 197.996094 867.332031 200.84375 865.90625 203.703125 C 862.015625 209.738281 860.824219 216.230469 862.328125 223.171875 C 860.421875 218.28125 860.101562 213.484375 861.367188 208.773438 C 862.929688 203.417969 866.785156 198.882812 872.9375 195.164062 Z M 897.027344 188.507812 C 897.917969 188.507812 898.804688 188.53125 899.6875 188.582031 L 899.683594 188.582031 C 904.128906 189.136719 908.355469 190.625 912.371094 193.042969 C 912.644531 193.207031 912.949219 193.285156 913.25 193.285156 C 913.824219 193.285156 914.386719 192.996094 914.703125 192.472656 C 914.769531 192.367188 914.820312 192.257812 914.859375 192.144531 L 914.863281 192.144531 C 915.527344 192.425781 916.1875 192.726562 916.847656 193.042969 L 916.84375 193.042969 C 923.929688 197.511719 927.988281 204.492188 929.023438 213.980469 C 929.28125 217.164062 929.253906 220.132812 928.9375 222.886719 C 928.605469 224.125 928.199219 225.378906 927.71875 226.652344 C 925.335938 231.742188 921.265625 236.238281 915.511719 240.144531 C 915.472656 240.171875 915.4375 240.195312 915.402344 240.226562 C 911.511719 243.34375 906.394531 245.496094 900.050781 246.6875 L 900.046875 246.6875 C 898.546875 246.832031 897.082031 246.90625 895.652344 246.90625 C 892.25 246.90625 889.054688 246.492188 886.058594 245.660156 L 886.054688 245.660156 C 878.351562 242.183594 872.398438 236.847656 868.199219 229.65625 L 868.195312 229.65625 C 863.90625 220.757812 864.113281 212.683594 868.824219 205.433594 C 868.863281 205.378906 868.894531 205.320312 868.925781 205.261719 C 870.898438 201.246094 875.09375 197.160156 881.511719 193.003906 C 881.527344 192.992188 881.542969 192.984375 881.554688 192.972656 C 884.144531 191.179688 887.734375 189.765625 892.316406 188.734375 C 893.902344 188.582031 895.472656 188.507812 897.027344 188.507812 Z M 901.3125 184.242188 C 899.695312 184.242188 898.039062 184.347656 896.335938 184.554688 C 896.320312 184.558594 896.304688 184.558594 896.285156 184.5625 C 895.421875 184.695312 894.578125 184.839844 893.761719 184.992188 C 889.929688 185.1875 885.96875 185.964844 881.882812 187.324219 L 881.847656 187.339844 C 868.628906 192.054688 860.714844 198.886719 858.101562 207.835938 L 858.09375 207.867188 C 855.292969 218.210938 859.058594 228.738281 869.390625 239.453125 L 869.394531 239.457031 C 873.878906 244.074219 879.066406 247.210938 884.964844 248.875 L 884.960938 248.875 C 887.710938 250.089844 890.65625 251.085938 893.808594 251.863281 C 893.828125 251.867188 893.84375 251.871094 893.863281 251.875 C 895.738281 252.273438 897.621094 252.472656 899.503906 252.472656 C 907.148438 252.472656 914.890625 249.210938 922.734375 242.6875 C 922.746094 242.675781 922.761719 242.664062 922.773438 242.652344 C 928.171875 237.863281 931.347656 231.480469 932.292969 223.503906 C 934.96875 213.28125 933 204.175781 926.378906 196.191406 L 926.367188 196.179688 C 919.628906 188.222656 911.277344 184.242188 901.3125 184.242188 Z M 901.3125 184.242188 " fillOpacity="1" fillRule="nonzero"/></g><path fill="#000000" d="M 887.648438 199.046875 C 886.796875 199.046875 886.097656 199.488281 885.558594 200.375 C 885.507812 200.457031 885.464844 200.539062 885.417969 200.625 C 885.3125 200.832031 885.242188 201.066406 885.207031 201.332031 C 885.195312 201.425781 885.1875 201.53125 885.179688 201.652344 C 885.175781 201.703125 885.175781 201.75 885.175781 201.796875 C 885.183594 202.007812 885.210938 202.21875 885.265625 202.433594 L 885.269531 202.453125 C 885.328125 202.679688 885.40625 202.890625 885.503906 203.089844 L 885.503906 203.09375 C 885.660156 203.417969 885.859375 203.707031 886.105469 203.957031 C 886.289062 204.152344 886.515625 204.324219 886.792969 204.46875 C 886.949219 204.554688 887.132812 204.632812 887.339844 204.710938 C 887.386719 204.726562 887.433594 204.742188 887.484375 204.753906 C 887.714844 204.816406 887.941406 204.847656 888.164062 204.847656 C 888.445312 204.847656 888.71875 204.800781 888.988281 204.699219 C 889.449219 204.527344 889.832031 204.230469 890.136719 203.808594 L 890.132812 203.808594 C 890.574219 203.558594 890.886719 203.117188 891.074219 202.488281 C 891.335938 201.59375 890.820312 200.65625 889.917969 200.394531 C 889.859375 200.378906 889.804688 200.363281 889.746094 200.355469 L 889.742188 200.355469 C 889.59375 199.84375 889.203125 199.414062 888.660156 199.226562 C 888.300781 199.105469 887.964844 199.046875 887.648438 199.046875 Z M 887.648438 199.046875 " fillOpacity="1" fillRule="nonzero"/><path fill="#000000" d="M 906.617188 200.296875 C 905.761719 200.296875 905.066406 200.742188 904.523438 201.628906 C 904.476562 201.707031 904.429688 201.789062 904.386719 201.875 C 904.277344 202.082031 904.207031 202.320312 904.175781 202.585938 C 904.164062 202.679688 904.152344 202.785156 904.144531 202.90625 C 904.140625 202.953125 904.140625 203 904.144531 203.050781 C 904.148438 203.261719 904.179688 203.472656 904.230469 203.683594 L 904.234375 203.707031 C 904.296875 203.929688 904.371094 204.144531 904.46875 204.34375 C 904.625 204.667969 904.824219 204.957031 905.074219 205.207031 L 905.070312 205.207031 C 905.253906 205.40625 905.480469 205.574219 905.757812 205.722656 C 905.917969 205.804688 906.097656 205.886719 906.304688 205.960938 C 906.351562 205.980469 906.398438 205.992188 906.449219 206.007812 C 906.679688 206.070312 906.90625 206.101562 907.128906 206.101562 C 907.410156 206.101562 907.6875 206.050781 907.953125 205.953125 C 908.414062 205.78125 908.796875 205.484375 909.101562 205.0625 L 909.097656 205.0625 C 909.539062 204.808594 909.851562 204.367188 910.039062 203.738281 C 910.300781 202.84375 909.785156 201.910156 908.886719 201.648438 C 908.828125 201.628906 908.769531 201.617188 908.710938 201.605469 L 908.707031 201.605469 C 908.558594 201.097656 908.167969 200.664062 907.625 200.480469 C 907.265625 200.359375 906.929688 200.296875 906.617188 200.296875 Z M 906.617188 200.296875 " fillOpacity="1" fillRule="nonzero"/><path fill="#000000" d="M 892.601562 218.402344 C 890.566406 218.402344 888.207031 219.003906 885.519531 220.203125 C 885.476562 220.21875 885.433594 220.242188 885.394531 220.265625 C 883.132812 221.507812 880.742188 223.5 878.230469 226.25 C 877.601562 226.9375 877.652344 228.003906 878.347656 228.632812 C 878.675781 228.925781 879.082031 229.070312 879.488281 229.070312 C 879.953125 229.070312 880.414062 228.882812 880.75 228.515625 C 882.980469 226.074219 885.054688 224.320312 886.96875 223.253906 L 886.964844 223.253906 C 889.1875 222.269531 891.0625 221.773438 892.585938 221.773438 C 892.730469 221.773438 892.875 221.78125 893.015625 221.789062 L 893.011719 221.789062 C 894.328125 221.964844 895.332031 222.539062 896.027344 223.511719 C 896.078125 223.585938 896.136719 223.652344 896.199219 223.71875 C 896.949219 224.472656 898.097656 226.679688 899.65625 230.332031 C 899.929688 230.976562 900.558594 231.363281 901.222656 231.363281 C 901.441406 231.363281 901.664062 231.320312 901.882812 231.230469 C 902.746094 230.867188 903.152344 229.878906 902.785156 229.019531 C 901.121094 225.113281 899.773438 222.597656 898.738281 221.472656 L 898.734375 221.472656 C 897.460938 219.738281 895.679688 218.726562 893.394531 218.4375 C 893.363281 218.433594 893.332031 218.429688 893.300781 218.425781 C 893.070312 218.410156 892.839844 218.402344 892.601562 218.402344 Z M 892.601562 218.402344 " fillOpacity="1" fillRule="nonzero"/></svg>